<svg width="24" height="24" viewBox="0 0 24 24" fill="none" xmlns="http://www.w3.org/2000/svg">
<path d="M12 21L10.55 19.7C8.86667 18.1833 7.475 16.875 6.375 15.775C5.275 14.675 4.4 13.6873 3.75 12.812C3.1 11.9373 2.646 11.1333 2.388 10.4C2.13 9.66666 2.00067 8.91666 2 8.14999C2 6.58333 2.525 5.27499 3.575 4.22499C4.625 3.17499 5.93333 2.64999 7.5 2.64999C8.36667 2.64999 9.19167 2.83333 9.975 3.19999C10.7583 3.56666 11.4333 4.08333 12 4.74999C12.5667 4.08333 13.2417 3.56666 14.025 3.19999C14.8083 2.83333 15.6333 2.64999 16.5 2.64999C18.0667 2.64999 19.375 3.17499 20.425 4.22499C21.475 5.27499 22 6.58333 22 8.14999C22 8.91666 21.8707 9.66666 21.612 10.4C21.3533 11.1333 20.8993 11.9373 20.25 12.812C19.6 13.6873 18.725 14.675 17.625 15.775C16.525 16.875 15.1333 18.1833 13.45 19.7L12 21ZM12 18.3C13.6 16.8667 14.9167 15.6373 15.95 14.612C16.9833 13.5867 17.8 12.6953 18.4 11.938C19 11.1793 19.4167 10.504 19.65 9.91199C19.8833 9.31999 20 8.73266 20 8.14999C20 7.14999 19.6667 6.31666 19 5.64999C18.3333 4.98333 17.5 4.64999 16.5 4.64999C15.7167 4.64999 14.9917 4.87066 14.325 5.31199C13.6583 5.75333 13.2 6.31599 12.95 6.99999H11.05C10.8 6.31666 10.3417 5.75399 9.675 5.31199C9.00833 4.86999 8.28333 4.64933 7.5 4.64999C6.5 4.64999 5.66667 4.98333 5 5.64999C4.33333 6.31666 4 7.14999 4 8.14999C4 8.73333 4.11667 9.32099 4.35 9.91299C4.58333 10.505 5 11.18 5.6 11.938C6.2 12.696 7.01667 13.5877 8.05 14.613C9.08333 15.6383 10.4 16.8673 12 18.3Z" fill="white"/>
</svg>
