<svg width="20" height="20" viewBox="0 0 20 20" fill="none" xmlns="http://www.w3.org/2000/svg">
<path opacity="0.2" fill-rule="evenodd" clip-rule="evenodd" d="M10.0003 15.8327C10.7664 15.8327 11.5249 15.6818 12.2326 15.3886C12.9404 15.0955 13.5834 14.6658 14.1251 14.1241C14.6668 13.5825 15.0965 12.9394 15.3896 12.2317C15.6828 11.5239 15.8337 10.7654 15.8337 9.99935C15.8337 9.2333 15.6828 8.47476 15.3896 7.76703C15.0965 7.0593 14.6668 6.41623 14.1251 5.87456C13.5834 5.33288 12.9404 4.9032 12.2326 4.61005C11.5249 4.3169 10.7664 4.16602 10.0003 4.16602C8.45323 4.16602 6.9695 4.7806 5.87554 5.87456C4.78157 6.96852 4.16699 8.45225 4.16699 9.99935C4.16699 11.5464 4.78157 13.0302 5.87554 14.1241C6.9695 15.2181 8.45323 15.8327 10.0003 15.8327ZM10.0003 18.3327C14.6028 18.3327 18.3337 14.6018 18.3337 9.99935C18.3337 5.39685 14.6028 1.66602 10.0003 1.66602C5.39783 1.66602 1.66699 5.39685 1.66699 9.99935C1.66699 14.6018 5.39783 18.3327 10.0003 18.3327Z" fill="white"/>
<path d="M1.66699 9.99935C1.66699 5.39685 5.39783 1.66602 10.0003 1.66602V4.16602C8.45323 4.16602 6.9695 4.7806 5.87554 5.87456C4.78157 6.96852 4.16699 8.45225 4.16699 9.99935H1.66699Z" fill="white"/>
</svg>
